<svg xmlns="http://www.w3.org/2000/svg" viewBox="0 0 1600 1000" role="img" aria-label="North America basemap">
  <defs>
    <linearGradient id="ocean" x1="0" y1="0" x2="0" y2="1">
      <stop offset="0%" stop-color="#d9ebf7"/>
      <stop offset="100%" stop-color="#bfd8ea"/>
    </linearGradient>
    <linearGradient id="land" x1="0" y1="0" x2="1" y2="1">
      <stop offset="0%" stop-color="#eff1da"/>
      <stop offset="100%" stop-color="#d8dfbd"/>
    </linearGradient>
    <filter id="shadow" x="-20%" y="-20%" width="140%" height="140%">
      <feDropShadow dx="0" dy="14" stdDeviation="18" flood-color="#406070" flood-opacity="0.12"/>
    </filter>
  </defs>
  <rect width="1600" height="1000" fill="url(#ocean)"/>
  <g opacity="0.45" stroke="#7b97a8" stroke-dasharray="6 14">
    <path d="M220 170H1420"/>
    <path d="M220 370H1420"/>
    <path d="M220 570H1420"/>
    <path d="M220 770H1420"/>
    <path d="M380 110V840"/>
    <path d="M650 110V840"/>
    <path d="M920 110V840"/>
    <path d="M1190 110V840"/>
  </g>
  <g filter="url(#shadow)">
    <path d="M254 264L292 210L360 176L448 156L540 152L610 166L692 148L778 124L858 120L932 142L1002 170L1068 170L1142 188L1210 180L1280 206L1330 250L1376 298L1426 366L1458 446L1460 532L1422 590L1394 632L1354 684L1288 714L1220 736L1180 784L1128 836L1060 854L988 844L932 810L878 778L820 750L744 742L672 756L592 776L504 758L446 720L388 682L340 628L306 568L280 500L252 432L226 360Z" fill="url(#land)" stroke="#91a38c" stroke-width="6"/>
    <path d="M818 736L866 764L918 808L968 850L1014 892L1068 930L1096 968L1042 972L986 950L942 916L906 874L858 834L822 794L806 756Z" fill="url(#land)" stroke="#91a38c" stroke-width="6"/>
    <path d="M286 246L248 192L264 136L318 102L352 128L342 182Z" fill="url(#land)" stroke="#91a38c" stroke-width="6"/>
  </g>
  <g fill="#cfe4f2" stroke="#88a8ba" stroke-width="2" opacity="0.92">
    <ellipse cx="966" cy="340" rx="38" ry="18"/>
    <ellipse cx="1018" cy="326" rx="28" ry="13"/>
    <ellipse cx="1060" cy="308" rx="24" ry="11"/>
    <ellipse cx="1102" cy="296" rx="18" ry="9"/>
  </g>
  <g stroke="#70856f" stroke-width="4" stroke-dasharray="18 16" opacity="0.62">
    <path d="M438 442H1178"/>
    <path d="M818 742H1118"/>
  </g>
  <g fill="#56687a" font-family="Source Sans 3, Arial, sans-serif">
    <text x="302" y="138" font-size="54">Pacifique</text>
    <text x="1214" y="174" font-size="54">Atlantique</text>
    <text x="748" y="196" font-size="58">Canada</text>
    <text x="782" y="604" font-size="62">Etats-Unis</text>
    <text x="930" y="894" font-size="56">Mexique</text>
    <text x="1092" y="950" font-size="46">Golfe du Mexique</text>
    <text x="962" y="270" font-size="30">Grands Lacs</text>
  </g>
</svg>